<svg version="1.1" id="Layer_1" xmlns="http://www.w3.org/2000/svg" x="0" y="0" viewBox="0 0 558.3 74.7" xml:space="preserve">
  <style>
    .st0{fill-rule:evenodd;clip-rule:evenodd}
  </style>
  <path d="M28.8 27.1h-16c-.3 0-.6.3-.9.6l-.9.9c-.3.3-.3.6-.3 1.1v16.5c0 .9.3 1.4 1.1 2 .3.3.6.3.9.3H29v11.1H10.6c-1.7 0-3.4-.3-4.3-.6-1.4-.3-2.6-1.1-3.7-2.3s-1.7-2.3-2-3.1c-.3-1.1-.6-2.6-.6-4V26.2c0-1.7.3-2.9.6-4s1.1-2.3 2.3-3.4c1.1-1.1 2.3-2 3.4-2.3s2.5-.5 4.5-.5h18.5v11.1h-.5z"/>
  <path class="st0" d="M73 49.6c0 2-.3 3.4-.6 4.6-.3 1.1-1.4 2.3-3.1 3.7-1.1.9-2.6 1.7-4 1.7-.9 0-2.3.3-4.6.3H47.3c-1.7 0-3.4-.3-4.6-.6-1.4-.3-2.6-1.1-3.7-2.3-1.1-1.1-1.7-2.3-2-3.4-.3-1.1-.6-2.6-.6-4V26.2c0-1.7.3-2.9.6-4s1.1-2.3 2.3-3.4 2.3-2 3.4-2.3c1.1-.3 2.9-.6 4.6-.6H61c2 0 3.7.3 5.1.9 1.7.6 2.9 1.1 3.4 2 1.1 1.1 2 2.6 2.6 3.7.6 1.1.9 2.6.9 4v23.1zm-11.4-3.4V29.9c0-.9-.3-1.4-.9-2-.6-.6-1.1-.9-1.7-.9h-9.1c-.3 0-.6.3-.9.3-.6.6-1.1 1.1-1.1 2v16.5c0 .9.3 1.4 1.1 2 .3.3.6.3.9.3h10c.3 0 .6-.3.9-.6.5.1.8-.7.8-1.3z"/>
  <path d="M116.6 59.9h-11.4V29.7c0-.9-.3-1.4-.9-2-.6-.6-1.1-.9-1.7-.9h-9.1c-.3 0-.6.3-.9.3-.6.6-.9 1.1-.9 2v30.8h-11V26.2c0-1.4.3-2.9.6-4s1.1-2.3 2.3-3.4c1.1-1.1 2.3-1.7 3.4-2.3 1.1-.3 2.9-.6 4.6-.6h13.7c1.7 0 3.7.3 5.1.9 1.7.6 2.9 1.1 3.4 2 1.1 1.1 2 2.6 2.3 3.7.6 1.1.9 2.6.9 4v33.4h-.4zm40.5-11.4c0 2-.3 3.7-.6 4.8-.6 1.4-1.4 2.9-2.6 4-1.1.9-2.3 1.7-3.4 2-1.1.3-2.6.6-4.3.6H124V48.8h19.7c.6 0 1.1-.3 1.7-.9.6-.6.6-1.1.6-2s-.3-1.4-.6-2c-.6-.6-.9-.9-1.7-.9h-10c-2.6 0-4.8-.9-6.6-2.9-1.1-1.1-1.7-2.3-2.3-3.4-.3-1.1-.6-2.9-.6-4.6v-6.6c0-1.4.3-2.9.6-4 .6-1.1 1.1-2.3 2.3-3.1 1.1-.9 2-1.7 3.1-2 1.1-.3 2.3-.6 3.7-.6H157v10.8h-19.7c-.6 0-1.1.3-1.7.9-.6.6-.6 1.1-.6 1.7 0 .6.3 1.1.9 1.7.6.6 1.1.9 1.7.9h9.4c1.7 0 3.1.3 4.6.9 1.1.6 2.3 1.4 3.4 2.6.9 1.1 1.4 2 1.7 3.1.3.9.6 2.3.6 3.7v6.3l-.2.1zm43.9 1.1c0 1.4-.3 2.9-.6 4s-1.1 2.3-2 3.4c-1.1 1.1-2.3 1.7-3.4 2.3-1.1.3-2.9.6-4.6.6h-13.7c-1.7 0-3.4-.3-5.1-.9-1.7-.6-2.9-1.1-3.4-2-1.1-1.1-2-2.6-2.3-3.7-.6-1.1-.9-2.6-.9-4V16h11.4v30.2c0 .9.3 1.4.9 1.7.6.6 1.1.9 1.7.9h9.1c.3 0 .6-.3.9-.6.6-.6.9-1.1.9-2V16H201v33.6zm61.6 10.3h-11.1V29.7c0-.9-.3-1.4-.9-2-.6-.6-1.1-.9-1.7-.9h-6.3c-.3 0-.6.3-.9.6-.6.6-.9 1.1-.9 1.7v30.8h-11.1V28.6c0-.3-.3-.6-.6-.9-.6-.6-1.1-.6-1.7-.6h-6c-.3 0-.6.3-.9.3-.6.3-.9.9-.9 1.7v30.8h-11.1V27.1c0-1.7.3-3.4.6-4.6.3-1.1 1.1-2.3 2.3-3.4 1.1-1.1 2.3-2 3.4-2.3 1.1-.3 2.6-.6 4.6-.6h8.3c1.1 0 2.3 0 3.4.3.9.3 1.7.6 2.6 1.1.3.3.9.6 1.1.9.3.3.9.6 1.1 1.1.9-.9 1.7-1.7 2.9-2.6.9-.6 1.7-.9 2.3-.9.9-.3 1.7-.3 2.9-.3h8.8c1.7 0 3.1.3 4.6.9 1.4.6 2.6 1.1 3.1 2 1.1 1.1 1.7 2.3 2 3.7.3 1.1.6 2.6.6 4.3v33.1h-.5v.1z"/>
  <path class="st0" d="M306.3 35.9L281.8 45v2.3c0 .6 0 .9.3 1.1.3.3.6.3 1.1.3H306v11.1h-26c-1.4 0-2.6-.3-3.7-.6s-2-1.1-3.1-2c-.9-.9-1.7-2-2.3-3.1-.6-1.1-.9-3.4-.9-6.3v-21c0-2 .3-3.4.6-4.8s1.1-2.6 2.3-3.4c1.1-.9 2.6-1.7 3.7-2 1.4-.3 2.9-.6 4.6-.6h14c1.7 0 3.4.3 4.6.6 1.1.3 2.3 1.1 3.4 2.3.9.9 1.7 2 2 3.1.3 1.1.6 2.3.6 4v10l.5-.1zm-11.2-6.5v-.9c0-.6-.3-.9-.9-1.1-.3 0-.3-.3-.6-.3-.6-.3-1.1-.3-1.7-.3h-8.3c-.3 0-.6.3-.9.6-.6.6-.9 1.1-.9 2v5.1l13.3-5.1zm32.3-5.2c0 2-.6 3.4-2 4.8s-2.9 2-4.8 2c-2 0-3.7-.6-5.1-2-1.4-1.4-2-2.9-2-4.8s.6-3.7 2-5.1c1.4-1.4 3.1-2.3 5.1-2.3 2 0 3.7.6 4.8 2 1.4 1.7 2 3.4 2 5.4zm0 29.7c0 2-.6 3.4-2 4.8s-2.9 2-4.8 2c-2 0-3.7-.6-5.1-2-1.4-1.4-2-2.9-2-4.8s.6-3.7 2-5.1c1.4-1.4 3.1-2 5.1-2 2 0 3.4.6 4.8 2s2 3.1 2 5.1zm44.7-4.3c0 1.1-.3 2.3-.6 3.4-.6 1.4-1.4 2.9-2.3 3.7-.9 1.1-2.3 1.7-4 2.3-1.1.3-2.3.6-3.1.6h-16.8c-.9 0-2-.3-3.1-.6-1.7-.6-2.9-1.4-4-2.3-1.1-1.1-1.7-2.3-2.3-3.7-.6-1.4-.9-2.6-.9-3.7V24.8c0-1.1.3-2.3.9-3.7.6-1.4 1.1-2.6 2.3-3.7.9-.9 1.7-1.4 2.9-2 1.7-.6 2.9-1.1 4.3-1.1h24.2V0h2.9v49.6h-.4zm-2.8-1.4V17.7h-23.4c-1.1 0-2 .3-2.9.6-1.1.6-2.3 1.1-3.1 2-.9 1.1-1.7 2.3-2 3.4-.3.9-.3 1.7-.3 3.1v21.4c0 1.4 0 2.3.3 3.1.3 1.1.9 2.3 2 3.4.9.9 1.7 1.7 3.1 2 .9.3 2 .6 3.1.6h15.1c1.1 0 2-.3 2.9-.6 1.1-.6 2.3-1.1 3.1-2 .9-1.1 1.7-2.3 2-3.4v-3.1zM416 59.6h-27c-.9 0-2-.3-3.1-.6-1.7-.6-2.9-1.4-4-2.3-.9-1.1-1.7-2.3-2.3-3.7-.6-1.4-.9-2.6-.9-3.7V24.8c0-1.1.3-2.3.9-3.7.6-1.4 1.1-2.6 2.3-3.7.9-.9 1.7-1.4 2.9-2 1.7-.6 2.9-1.1 4.3-1.1h16.8c.9 0 2 .3 3.1.6 1.7.6 2.9 1.4 4 2.3 1.1 1.1 1.7 2.3 2.3 3.7.6 1.1.6 2.3.6 3.4v4.8l-34.5 14.8V47c0 1.4 0 2.3.3 3.1.3 1.1.9 2.3 2 3.4.9.9 1.7 1.4 3.1 2 .9.3 2 .6 3.1.6H416v3.5zm-2.8-31.7v-1.4c0-1.4 0-2.3-.3-3.1-.3-1.1-.9-2.3-2-3.4-.9-.9-1.7-1.4-2.9-2-1.1-.3-2.3-.6-3.1-.6h-15.1c-1.1 0-2 .3-2.9.6-1.1.3-2.3 1.1-3.1 2-.9 1.1-1.7 2.3-2 3.4-.3.9-.3 1.7-.3 3.1v15.1l31.7-13.7z"/>
  <path d="M456 49.6c0 1.1-.3 2.6-.9 3.7-.6 1.4-1.1 2.6-2.3 3.4-.9 1.1-2.3 1.7-4 2.3-1.1.3-2.6.6-3.7.6h-22.5v-2.9h22c.9 0 2-.3 2.9-.6 1.1-.3 2.3-1.1 3.1-2 .9-.9 1.4-2 1.7-3.1.3-.9.3-1.7.3-2.6v-1.7c0-1.1-.3-2.3-.6-3.4s-.9-2-1.7-2.6c-.6-.6-1.7-1.1-2.9-1.7-1.1-.3-2.3-.6-3.1-.6h-12c-1.1 0-2.3-.3-3.4-.9-1.4-.6-2.9-1.4-3.7-2.3-1.1-1.1-1.7-2-2.3-3.4-.6-1.1-.9-2.6-.9-4v-3.4c0-1.4.3-2.6.6-3.4.6-1.4 1.4-2.6 2.3-3.7 1.1-1.1 2.6-2 4-2.6 1.1-.3 2.3-.6 3.1-.6h22.8V17h-22c-.9 0-2 .3-3.4.6-1.1.3-2.3.9-2.9 1.7-.9 1.1-1.4 2-1.7 3.1 0 .6-.3 1.4-.3 2.9v2.3c0 1.1 0 2 .3 2.9.3 1.1.9 2.3 2 3.1.9.9 2 1.4 3.1 2 .6.3 1.4.3 2.3.3h12.5c1.1 0 2.6.3 3.7.9 1.4.6 2.6 1.4 3.4 2.3.9.9 1.7 2 2.3 3.4.6 1.4.9 2.6.9 4v3.1h1z"/>
  <path class="st0" d="M466.5 10.8c-.6 0-.9-.3-1.1-.6-.3-.3-.3-.9-.3-1.1 0-.6 0-.9.3-1.1.3-.3.6-.6 1.1-.6.6 0 .9.3 1.1.6.3.3.6.9.6 1.1 0 .3 0 .9-.3 1.1-.5.6-.8.6-1.4.6zm1.4 49.1H465V14.8h2.9v45.1zm46.5 4.5c0 1.1-.3 2.3-.6 3.4-.6 1.4-1.4 2.9-2.3 3.7-.9.9-1.7 1.4-2.9 2-1.4.6-2.9 1.1-4.3 1.1h-27.1v-2.9h26.2c1.1 0 2 0 2.9-.3 1.1-.3 2.3-1.1 3.1-2 .9-.9 1.4-2 1.7-3.4.3-.9.3-2 .3-3.1V60h-24.2c-.9 0-2-.3-3.1-.6-1.7-.6-2.9-1.4-4-2.3-.9-1.1-1.7-2.3-2.3-3.7-.6-1.4-.9-2.6-.9-3.7V25.4c0-1.1.3-2.3.9-3.7.6-1.4 1.1-2.6 2.3-3.7.9-.9 1.7-1.4 2.9-2 1.7-.6 2.9-1.1 4.3-1.1h16.8c.9 0 2 .3 3.1.6 1.7.6 2.9 1.4 4 2.3.9 1.1 1.7 2.3 2.3 3.7.6 1.4.9 2.6.9 3.4v39.5zm-2.8-7.4V26.5c0-1.4 0-2.6-.3-3.1-.3-1.4-.9-2.6-1.7-3.4-.9-.9-2-1.4-3.1-2-.9-.3-2-.6-3.1-.6h-15.1c-1.1 0-2 0-2.9.3-1.1.3-2.3 1.1-3.1 2-.9.9-1.4 2-1.7 3.4-.3.9-.3 2-.3 3.1v21.4c0 1.7.3 3.1.6 4 .3.9.9 1.7 1.7 2.6.9.9 1.7 1.4 2.9 2 .9.3 2 .6 2.9.6h23.4v.2z"/>
  <path d="M558.3 59.9h-2.9V26.8c0-1.7-.3-2.9-.6-4.3-.3-1.1-.9-2.3-1.7-3.1-.9-.9-1.7-1.4-2.9-1.7-1.1-.3-2.3-.6-3.7-.6H532c-1.4 0-2.9.3-3.7.6-.9.3-2 .9-2.6 1.7-.9.9-1.4 1.7-1.7 3.1-.3 1.1-.6 2.3-.6 3.4v33.9h-2.9V27.1c0-2.6.3-4.6.9-6 .6-1.4 1.4-2.6 2.3-3.4.9-.9 2.3-1.7 3.7-2.3 1.4-.6 3.1-.9 4.8-.9h13.1c2 0 3.4 0 4.6.3 2.3.3 4 1.4 4.8 2.6 1.1 1.4 2 2.9 2.3 4.6.3 1.1.6 2.6.6 4.3v33.6h.7z"/>
</svg>